<svg xmlns="http://www.w3.org/2000/svg" xmlns:xlink="http://www.w3.org/1999/xlink" version="1.1" id="Layer_1" x="0px" y="0px" width="100px" height="100px" viewBox="0 0 100 100" enable-background="new 0 0 100 100" xml:space="preserve">
<rect fill="none" width="100" height="100"/>
<path d="M50.002,68.688c-3.064,0-5.942,1.194-8.107,3.359c-0.93,0.93-0.93,2.442,0,3.377l6.414,6.414  c0.472,0.463,1.08,0.696,1.693,0.696c0.608,0,1.221-0.233,1.688-0.696l6.414-6.414c0.935-0.935,0.935-2.447,0-3.377  C55.94,69.882,53.062,68.688,50.002,68.688z M50.002,76.772l-2.729-2.729c1.693-0.759,3.765-0.759,5.458,0L50.002,76.772z   M94.302,39.223c-0.467,0.467-1.08,0.701-1.688,0.701c-0.612,0-1.226-0.234-1.688-0.701C79.971,28.272,65.44,22.242,50.002,22.242  S20.029,28.272,9.074,39.223c-0.93,0.935-2.442,0.935-3.373,0c-0.935-0.932-0.935-2.442,0-3.375  c11.85-11.856,27.583-18.383,44.3-18.383c16.712,0,32.446,6.526,44.3,18.383C95.232,36.781,95.232,38.291,94.302,39.223z   M85.256,44.896c0.931,0.93,0.931,2.442,0,3.377c-0.467,0.467-1.08,0.699-1.688,0.699c-0.612,0-1.226-0.231-1.688-0.699  c-8.53-8.533-19.855-13.228-31.877-13.228c-12.031,0-23.347,4.695-31.882,13.228c-0.93,0.932-2.442,0.932-3.373,0  c-0.935-0.935-0.935-2.447,0-3.377c9.43-9.432,21.95-14.627,35.254-14.627C63.298,30.27,75.822,35.465,85.256,44.896z   M76.201,53.941c0.938,0.931,0.938,2.442,0.004,3.377c-0.467,0.472-1.08,0.701-1.688,0.701c-0.608,0-1.222-0.229-1.688-0.697  c-6.11-6.106-14.222-9.47-22.827-9.47c-8.614,0-16.717,3.363-22.835,9.47c-0.93,0.931-2.442,0.931-3.373-0.004s-0.93-2.446,0-3.377  c7.014-7.008,16.324-10.866,26.208-10.866S69.188,46.933,76.201,53.941z M67.15,62.996c0.935,0.935,0.935,2.447,0,3.377  c-0.463,0.468-1.075,0.701-1.688,0.701c-0.608,0-1.221-0.233-1.684-0.701c-3.686-3.681-8.579-5.713-13.776-5.713  c-5.198,0-10.095,2.032-13.776,5.713c-0.935,0.935-2.442,0.935-3.377,0c-0.935-0.93-0.935-2.442,0-3.377  c4.585-4.589,10.677-7.11,17.153-7.11C56.474,55.886,62.565,58.407,67.15,62.996z"/>
</svg>