<svg xmlns="http://www.w3.org/2000/svg" xmlns:xlink="http://www.w3.org/1999/xlink" version="1.0" x="0px" y="0px" width="24px" height="24px" viewBox="0 0 100 100" enable-background="new 0 0 100 100" xml:space="preserve">
<g id="Captions">
</g>
<g id="Your_Icon">
	<path fill="#000000" d="M41.665,64.579c0-3.455-2.795-6.25-6.25-6.25c-3.446,0-6.242,2.795-6.242,6.25v22.913h12.492V64.579z"/>
	<path fill="#000000" d="M62.5,39.539c0-3.45-2.795-6.25-6.25-6.25c-3.452,0-6.25,2.8-6.25,6.25v47.953h12.5V39.539z"/>
	<path fill="#000000" d="M83.327,14.583c0-3.455-2.795-6.25-6.25-6.25c-3.446,0-6.242,2.795-6.242,6.25v72.909h12.492V14.583z"/>
	<polygon fill="#000000" points="20.835,87.5 20.835,0 8.337,0 8.337,99.992 8.337,99.992 8.337,100 91.663,100 91.663,87.5  "/>
</g>
</svg>
